<?xml version="1.0" encoding="UTF-8" standalone="no"?>
<svg width="65px" height="64px" viewBox="0 0 65 64" version="1.1" xmlns="http://www.w3.org/2000/svg" xmlns:xlink="http://www.w3.org/1999/xlink" xmlns:sketch="http://www.bohemiancoding.com/sketch/ns">
    <!-- Generator: Sketch 3.4.4 (17249) - http://www.bohemiancoding.com/sketch -->
    <title>Group</title>
    <desc>Created with Sketch.</desc>
    <defs></defs>
    <g id="Page-1" stroke="none" stroke-width="1" fill="none" fill-rule="evenodd" sketch:type="MSPage">
        <g id="Group" sketch:type="MSLayerGroup" transform="translate(1.000000, 0.000000)">
            <path d="M53.6204,58.953 L46.6554,57.087 L44.7884,50.121 L49.8874,45.022 L56.8534,46.889 L58.7194,53.854 L53.6204,58.953 Z M60.2394,43.502 C57.1004,40.363 52.6574,39.338 48.6554,40.404 L26.9214,18.67 C28.6684,13.741 27.5854,8.033 23.6414,4.088 C19.6944,0.141 13.9814,-0.94 9.0504,0.811 L19.3984,11.159 L19.3984,16.816 L16.5704,19.645 L10.9134,19.645 L0.5654,9.296 C-1.1866,14.228 -0.1046,19.941 3.8424,23.887 C7.7914,27.836 13.5084,28.917 18.4424,27.161 L40.1704,48.889 C39.1044,52.891 40.1294,57.334 43.2684,60.473 C47.9554,65.159 55.5524,65.159 60.2394,60.473 C64.9254,55.787 64.9254,48.189 60.2394,43.502 L60.2394,43.502 Z" id="Fill-331" fill="#E2E4E5" sketch:type="MSShapeGroup"></path>
            <path d="M48.6558,40.4043 L26.9218,18.6703 C28.6688,13.7403 27.5858,8.0323 23.6408,4.0883 C19.6948,0.1413 13.9818,-0.9407 9.0508,0.8113 L19.3988,11.1593 L19.3988,16.8163 L18.0428,18.1713 L47.3908,47.5193 L49.8878,45.0223 L56.8528,46.8883 L58.7198,53.8543 L56.2218,56.3513 L60.2888,60.4183 C64.9228,55.7273 64.9078,48.1713 60.2388,43.5023 C57.0998,40.3633 52.6578,39.3383 48.6558,40.4043" id="Fill-332" fill="#FFFFFF" sketch:type="MSShapeGroup"></path>
            <path d="M30.542,45.0801 C31.299,44.3231 31.597,43.2161 31.32,42.1821 C31.053,41.1801 31.312,40.0681 32.097,39.2821 L34.926,36.4541 C35.316,36.0631 35.316,35.4301 34.926,35.0401 L29.269,29.3831 C28.878,28.9921 28.245,28.9921 27.854,29.3831 L25.026,32.2111 C24.241,32.9971 23.128,33.2561 22.127,32.9881 C21.091,32.7111 19.986,33.0081 19.228,33.7661 L0.984,52.0101 C-2.551,55.5461 8.762,66.8601 12.298,63.3241 L30.542,45.0801 Z" id="Fill-333" fill="#DF2C2C" sketch:type="MSShapeGroup"></path>
            <path d="M59.941,1.5389 L47.92,7.9029 L47.213,12.8529 L29.976,30.0899 L34.218,34.3329 L51.456,17.0949 L56.334,16.4589 L62.849,4.4469 L59.941,1.5389 Z" id="Fill-334" fill="#E2E4E5" sketch:type="MSShapeGroup"></path>
            <path d="M59.941,1.5391 L47.92,7.9031 L47.213,12.8521 L29.976,30.0901 L32.32,32.4341 L61.578,3.1761 L59.941,1.5391 Z" id="Fill-335" fill="#FFFFFF" sketch:type="MSShapeGroup"></path>
            <path d="M29.2686,29.3828 C28.8776,28.9918 28.2456,28.9918 27.8546,29.3828 L25.0256,32.2118 C24.2406,32.9968 23.1276,33.2558 22.1266,32.9878 C21.0916,32.7108 19.9866,33.0078 19.2286,33.7668 L0.9846,52.0098 C-0.8304,53.8248 1.2686,57.6838 4.2166,60.5368 L32.3196,32.4338 L29.2686,29.3828 Z" id="Fill-336" fill="#FA5655" sketch:type="MSShapeGroup"></path>
        </g>
    </g>
</svg>